<svg xmlns="http://www.w3.org/2000/svg" xmlns:xlink="http://www.w3.org/1999/xlink" width="224" height="147" xmlns:v="https://vecta.io/nano"><g fill="none" fill-rule="evenodd"><path d="M0 146.998h224v-146H0z" fill="#e7edf3"/><g fill-rule="nonzero"><path d="M224 0v146l-.58-1.032c-16.727-7.536-51.145-11.801-69.175-14.728-32.646-5.353-63.401-2.727-88.728 2.446-15.486 3.166-49.76 5.872-64.55 11.567L0 146V0h224z" fill="#029ed0"/><path fill="#dbdbdb" d="M60.997 65.838h99.791v67.224H60.997z"/><path fill="#263238" d="M61.724 66.659h98.34v65.584h-98.34z"/><path fill="#c7c7c7" d="M48 138.103h125.783v4.615H48z"/><path fill="#dbdbdb" d="M48 138.103l12.997-5.041h99.791l12.997 5.041z"/><path fill="#263238" d="M62.158 136.316l8.389-3.254h80.692l8.389 3.254z"/><path fill="#fff" d="M67.282 71.64h87.225v55.619H67.282z"/><path fill="#455a64" d="M67.206 71.64h87.298v2.14H67.206z"/><g fill="#e7edf3"><circle cx="68.369" cy="72.712" r="1"/><circle cx="70.521" cy="72.712" r="1"/></g><circle fill="#e8edf2" cx="72.672" cy="72.712" r="1"/><g fill="#fff"><path d="M71.148 108.397l1.694.998 1.678 1.021 3.333 2.085h-.149l3.33-2.085 1.678-1.021 1.694-.998-1.621 1.114-1.636 1.09-3.296 2.138-.076.047-.073-.047-3.299-2.138-1.636-1.09-1.621-1.114z"/><path d="M71.182 115.239l1.242-1.008 1.289-.945 1.323-.892 1.367-.829-1.242 1.008-1.289.945-1.323.892-1.367.829zm13.193 0l-1.367-.829-1.323-.892-1.289-.945-1.244-1.008 1.367.829 1.323.892 1.289.945 1.244 1.008z"/></g><path d="M86.853 115.91c0 1.034-.83 1.872-1.854 1.872s-1.854-.838-1.854-1.872.83-1.872 1.854-1.872 1.854.838 1.854 1.872zm2.256-3.578c.001.37-.219.704-.557.846a.9.9 0 0 1-.987-.198.92.92 0 0 1-.196-.997c.141-.342.471-.564.838-.563.498 0 .902.408.902.911h0zm39.678 2.672a.91.91 0 0 1-.905.914.91.91 0 1 1 0-1.828.91.91 0 0 1 .905.914zm18.098 8.334c.001.37-.219.704-.557.846a.9.9 0 0 1-.987-.196.92.92 0 0 1-.197-.996c.14-.342.47-.565.836-.565a.91.91 0 0 1 .905.911zm-1.385 2.669c-.001.6-.483 1.086-1.077 1.088H77.22c-.595 0-1.077-.487-1.077-1.088s.482-1.088 1.077-1.088a1.14 1.14 0 0 1 .261.029c.001-.872.524-1.657 1.323-1.986a2.11 2.11 0 0 1 2.321.486h.021c0-.132-.021-.264-.021-.401.001-1.396.713-2.694 1.885-3.435a3.98 3.98 0 0 1 3.882-.212c.094-1.35 1.098-2.456 2.422-2.666s2.616.531 3.115 1.786a4 4 0 0 1 3.399-1.893 4.08 4.08 0 0 1 .769.074 5.36 5.36 0 0 1-.081-.945c-.001-2.144 1.236-4.092 3.166-4.986s4.199-.568 5.806.832c.184-.363.553-.591.957-.591a1.08 1.08 0 0 1 .413.084l1.009-27.218h5.919l1.009 27.218a1.07 1.07 0 0 1 1.378.507c1.608-1.401 3.876-1.726 5.806-.832s3.167 2.842 3.166 4.986a5.36 5.36 0 0 1-.081.945c.252-.049.509-.074.766-.074a4 4 0 0 1 3.399 1.893 2.87 2.87 0 0 1 3.091-1.722c1.299.207 2.293 1.279 2.414 2.602a3.98 3.98 0 0 1 3.887.203c1.174.74 1.889 2.038 1.891 3.436 0 .135 0 .264-.021.401h.021a2.11 2.11 0 0 1 2.321-.486c.8.329 1.323 1.114 1.323 1.986.086-.02.173-.029.261-.029a1.07 1.07 0 0 1 .768.32c.203.206.317.485.315.776h0z" opacity=".6" fill="#c5dae4"/><g fill="#fd3d08"><path d="M100.748 62.363c-.212 0-8.104 3.681-8.578 12.748-.429 8.333 5.276 16.25 6.013 15.724.902-.642-.633-5.833 1.122-11.774.622-2.112 3.341-3.977 3.341-3.977l-1.898-12.722z"/><path d="M102.649 75.085a12.55 12.55 0 0 0-2.162 1.98l-4.782-10.797c2.314-2.701 4.923-3.892 5.043-3.892l1.901 12.709z" opacity=".1"/><path d="M120.847 62.379c.212 0 8.104 3.697 8.559 12.759.418 8.336-5.299 16.242-6.036 15.716-.899-.642.641-5.833-1.103-11.777-.62-2.112-3.336-3.979-3.336-3.979l1.916-12.719z"/></g><path d="M125.914 66.311l-4.784 10.8a12.56 12.56 0 0 0-2.199-2.012l1.916-12.722c.12 0 2.753 1.207 5.067 3.934z" fill="#ff6e4a" opacity=".1"/><path d="M116.769 83.22h-11.913s-5.613-10.137-4.949-22.222c.335-6.034 1.895-12.109 3.775-17.134 2.586-6.942 5.783-11.866 7.168-11.864s4.575 4.93 7.153 11.864c1.867 5.017 3.42 11.106 3.746 17.139.648 12.086-4.98 22.217-4.98 22.217z" fill="#ebebeb"/><path d="M117.961 59.437c-.001 2.808-1.677 5.339-4.246 6.412s-5.525.478-7.49-1.509-2.551-4.973-1.485-7.567 3.573-4.283 6.353-4.281c3.795.003 6.869 3.112 6.868 6.945z" fill="#c7c7c7"/><path d="M117.718 58.73c-.001 2.808-1.677 5.339-4.246 6.412s-5.525.478-7.49-1.509-2.551-4.973-1.485-7.567 3.573-4.283 6.353-4.281c3.795.003 6.869 3.112 6.868 6.945h0z" fill="#004f6d"/><path d="M115.611 58.727c0 2.658-2.134 4.814-4.766 4.814s-4.766-2.155-4.766-4.814 2.134-4.814 4.766-4.814a4.74 4.74 0 0 1 3.37 1.41 4.84 4.84 0 0 1 1.396 3.404h0z" fill="#fff"/><path d="M115.613 58.724c.001.597-.109 1.189-.324 1.745l-2.716 2.743c-.55.217-1.135.327-1.725.325a4.63 4.63 0 0 1-1.276-.177l5.866-5.923c.116.419.175.851.175 1.286h0zm-4.068-4.758l-5.414 5.466a4.8 4.8 0 0 1-.052-.705 4.83 4.83 0 0 1 1.656-3.641 4.73 4.73 0 0 1 3.811-1.112v-.008zm3.472 2.43l-6.478 6.541c-.126-.069-.248-.145-.366-.227l6.619-6.683.225.37z" fill="#ebebeb"/><path d="M118.003 43.864h-14.324c2.586-6.942 5.783-11.866 7.168-11.864s4.578 4.93 7.155 11.864z" fill="#fd3d08"/><g fill="#fff"><path d="M106.147 42.361a.4.4 0 0 1-.407.393c-.22-.004-.395-.186-.393-.407s.18-.4.4-.401a.4.4 0 0 1 .287.122c.075.078.116.184.113.293zm2.549 0c-.004.224-.187.402-.409.399s-.399-.187-.396-.411.183-.404.405-.402a.4.4 0 0 1 .286.123.41.41 0 0 1 .114.292zm2.549.003a.41.41 0 0 1-.247.378.4.4 0 0 1-.44-.088.41.41 0 0 1-.087-.444c.063-.152.211-.251.374-.25.221 0 .4.181.4.404h0zm2.549.003c0 .225-.18.407-.403.407s-.403-.182-.403-.407.18-.407.403-.407c.107-.001.21.042.285.118s.118.18.117.288h0z"/><use xlink:href="#B"/></g><g fill="#c7c7c7"><path d="M106.131 81.361c0 .165-.098.313-.249.376a.4.4 0 0 1-.439-.089.41.41 0 0 1-.086-.444c.063-.152.211-.25.374-.249.221.001.4.183.4.407zm2.549 0c.001.165-.096.314-.247.378a.4.4 0 0 1-.44-.086.41.41 0 0 1-.088-.443c.062-.152.209-.252.372-.252.221 0 .401.18.403.404zm2.549.003c0 .225-.18.407-.403.407s-.403-.182-.403-.407.18-.407.403-.407a.4.4 0 0 1 .285.119.41.41 0 0 1 .118.288h0zm2.546.003c0 .165-.098.313-.249.376a.4.4 0 0 1-.439-.089.41.41 0 0 1-.086-.444c.063-.152.211-.25.374-.249.221.001.4.183.4.407h0z"/><use xlink:href="#B" x="-0.016" y="39"/></g><path fill="#004f6d" d="M115.671 86.838l-9.691-.008-.452-3.617 10.601.008z"/><path fill="#000" opacity=".1" d="M116.128 83.22l-.225 1.761-10.204-.386-.17-1.384z"/><g fill="#c6dae5"><use xlink:href="#C"/><use xlink:href="#C" x="-131" y="61"/><use xlink:href="#D"/><use xlink:href="#D" x="-113" y="-64"/><path d="M91.011 27.972c-.062 0-.114-.023-.149-.069-.132-.16-.47-.637-.707-1.796-1.01-.168-1.419-.46-1.568-.551-.062-.038-.088-.099-.07-.16.026-.099-.066-.403 1.639-.716.492-2.218.804-2.066.918-2.089h.035c.062 0 .114.023.149.069.141.175.463.725.727 2.02 1.687.305 1.601.609 1.619.708.018.061-.009.122-.07.16-.149.091-.521.287-1.549.454-.457 1.974-.815 1.939-.938 1.962-.009 0-.026.008-.035.008zm51.159 6.793l2.025-1.922 5.045 4.788-2.025 1.922zm48.706 4.52l-1.788 1.531-4.011-4.219 1.788-1.531zm-13.109 73.384l2.086 1.143-2.994 4.921-2.086-1.143zM45.961 40.841l-2.025 1.922-5.045-4.788 2.025-1.922zm143.482 33.871l-1.82-2.099 5.51-4.302 1.82 2.099zM65.828 46.329l1.504 1.582-4.144 3.548-1.504-1.582zM38.186 115l.83 1.98-5.186 1.959-.83-1.98zm77.671-99.856l1.504 1.582-4.144 3.548-1.504-1.582z"/></g></g></g><defs ><path id="B" d="M116.34 42.367c.001.165-.097.314-.247.378a.4.4 0 0 1-.44-.088.41.41 0 0 1-.087-.444c.063-.152.211-.251.374-.25.22.001.399.181.4.404h0z"/><path id="C" d="M170.299 26.692c-.109 0-.21-.062-.286-.179-.252-.404-1.116-1.648-1.57-4.541-1.908-.412-2.455-1.088-2.732-1.322a.41.41 0 0 1-.134-.397c.05-.249-.192-.864 3.019-1.634.933-5.544 1.586-5.309 1.805-5.364.025-.008.05-.008.067-.008.109 0 .21.062.286.179.269.428.839 1.958 1.335 5.193 3.193.77 3.052 1.385 3.102 1.642.025.148-.025.295-.134.397-.277.233-.87.902-2.803 1.314-.857 4.937-1.659 4.665-1.886 4.727-.025-.008-.05-.008-.067-.008z"/><path id="D" d="M173.692 85.005c-.082 0-.164-.039-.221-.118-.188-.26-.45-1.283-.802-3.14-1.458-.26-2.268-.464-2.481-.614-.082-.063-.123-.157-.106-.252.033-.157.074-.346 2.53-.834.712-3.549.991-3.604 1.155-3.643.016 0 .033-.008.057-.008.082 0 .164.039.221.118.205.275.499 1.464.876 3.533 2.44.488 2.481.677 2.514.834.025.094-.016.189-.106.252-.213.15-1.032.354-2.506.614-.655 3.155-.901 3.211-1.073 3.242-.025.008-.041.016-.057.016z"/></defs></svg>